<svg xmlns="http://www.w3.org/2000/svg" width="37" height="38" fill="none"><g filter="url(#a)"><path fill="#28303A" d="M3.123 2.124h32v32h-32z"/></g><path fill="#F0F5F8" d="m20.143 7.175-8.52-.17s-1.605 1.68 1.191 2.435c2.38.641 4.95 1.302 4.95 2.264 0 2.113-8.54.811-8.54 3.566 0 2.265 7.84.982 7.84 2.756 0 2.113-7.5 1.622-7.5 3.887 0 1.981 8.841 1.566 7.028 3.377-.68.68-5.138 2.699-5.138 2.699v1.66h7.575-.34 7.593v-1.622s-4.703-2.265-5.138-2.699c-1.813-1.811 7.878-1.396 7.878-3.378 0-2.264-8.35-1.792-8.35-3.887 0-1.793 7.84-.49 7.84-2.755 0-2.755-8.539-1.453-8.539-3.566 0-.982 2.55-1.623 4.95-2.265 2.795-.754 1.19-2.434 1.19-2.434l-8.52.17h2.55v-.038z"/><defs><filter id="a" width="36.358" height="36.358" x=".4" y=".672" color-interpolation-filters="sRGB" filterUnits="userSpaceOnUse"><feFlood flood-opacity="0" result="BackgroundImageFix"/><feColorMatrix in="SourceAlpha" result="hardAlpha" values="0 0 0 0 0 0 0 0 0 0 0 0 0 0 0 0 0 0 127 0"/><feOffset dx="-.545" dy=".726"/><feGaussianBlur stdDeviation="1.089"/><feComposite in2="hardAlpha" operator="out"/><feColorMatrix values="0 0 0 0 0.156863 0 0 0 0 0.188235 0 0 0 0 0.227451 0 0 0 0.22 0"/><feBlend in2="BackgroundImageFix" result="effect1_dropShadow_2038_6267"/><feBlend in="SourceGraphic" in2="effect1_dropShadow_2038_6267" result="shape"/></filter></defs></svg>