<svg width="479" height="256" viewBox="-3 -3 479 256" fill="none" xmlns="http://www.w3.org/2000/svg">
<path d="M44.0578 50.0445L75.0732 98.6546H66.3253C59.0088 98.6546 57.8954 97.539 52.0105 88.1357L29.5839 52.4352H19.5636V85.7451C19.5636 90.5264 20.5179 92.7577 25.4485 97.539V97.6984H0V97.539C4.93066 92.7577 5.88497 90.5264 5.88497 85.7451V14.0252C5.88497 9.2439 4.93066 7.01261 0 2.23128V2.07191H29.1068C53.2829 2.07191 66.1662 10.5189 66.1662 25.9785C66.1662 38.5693 57.1002 46.2195 44.0578 50.0445ZM19.5636 51.4789H30.2201C45.0121 51.4789 51.3742 45.2632 51.3742 29.0067C51.3742 9.88141 45.0121 3.02817 27.6753 3.02817H19.5636V51.4789Z" fill="black" fill-opacity="0.9"/>
<path d="M111.8 90.2076C121.502 90.2076 128.659 85.9045 132.795 78.4137L133.113 78.5731C130.091 91.1639 120.866 99.2922 106.71 99.2922C86.3511 99.2922 76.0126 84.1513 76.0126 62.9541C76.0126 41.5975 86.6692 26.616 106.392 26.616C124.206 26.616 133.749 39.685 133.749 56.579V57.6946H89.214V59.6072C89.214 78.8918 95.8943 90.2076 111.8 90.2076ZM105.756 27.5723C93.1904 27.5723 89.214 38.41 89.214 55.4634V56.579H120.548V53.2321C120.548 37.4537 117.048 27.5723 105.756 27.5723Z" fill="black" fill-opacity="0.9"/>
<path d="M173.962 57.6946H141.992L142.947 52.9133H174.916L173.962 57.6946Z" fill="black" fill-opacity="0.9"/>
<path d="M179.44 29.3255V28.2098H189.301L189.937 11.9533H202.502V28.2098H219.521V29.3255H202.502V82.3981C202.502 89.4108 205.683 93.8733 212.523 93.8733C217.135 93.8733 219.68 91.642 221.589 89.2514L221.907 89.4108C219.839 94.8296 214.749 99.2922 206.001 99.2922C195.027 99.2922 189.301 93.0764 189.301 83.3544V29.3255H179.44Z" fill="black" fill-opacity="0.9"/>
<path d="M286.105 87.0201C286.105 91.1639 287.059 93.0764 291.513 97.539V97.6984H267.495V97.539C271.949 93.0764 272.903 91.1639 272.903 87.0201V48.7695C272.903 39.2069 268.927 32.6724 258.429 32.6724C251.113 32.6724 246.023 36.1787 243.16 39.3662V87.0201C243.16 91.1639 244.115 93.0764 248.568 97.539V97.6984H224.551V97.539C229.005 93.0764 229.959 91.1639 229.959 87.0201V14.5034C229.959 9.40327 229.005 7.33136 223.756 2.23128V2.07191H243.16V38.0912C247.137 32.513 253.499 26.616 264.792 26.616C278.152 26.616 286.105 34.5849 286.105 47.8132V87.0201Z" fill="black" fill-opacity="0.9"/>
<path d="M311.935 16.894C306.845 16.894 303.187 13.3877 303.187 8.44701C303.187 3.50631 306.845 0 311.935 0C317.024 0 320.683 3.50631 320.683 8.44701C320.683 13.3877 317.024 16.894 311.935 16.894ZM318.933 87.0201C318.933 91.1639 319.887 93.0764 324.341 97.539V97.6984H300.324V97.539C304.777 93.0764 305.732 91.1639 305.732 87.0201V40.0037C305.732 35.063 304.777 33.1505 300.006 28.3692V28.2098H318.933V87.0201Z" fill="black" fill-opacity="0.9"/>
<path d="M394.762 87.0201C394.762 91.1639 395.716 93.0764 400.17 97.539V97.6984H376.153V97.539C380.606 93.0764 381.56 91.1639 381.56 87.0201V48.7695C381.56 39.2069 377.584 32.6724 367.086 32.6724C360.088 32.6724 354.998 35.8599 352.135 38.8881V87.0201C352.135 91.1639 353.09 93.0764 357.543 97.539V97.6984H333.526V97.539C337.98 93.0764 338.934 91.1639 338.934 87.0201V40.0037C338.934 35.063 337.98 33.1505 333.208 28.3692V28.2098H351.817L352.135 37.7725C355.953 32.3536 362.474 26.616 373.449 26.616C386.968 26.616 394.762 34.5849 394.762 47.8132V87.0201Z" fill="black" fill-opacity="0.9"/>
<path d="M440.947 53.3914L472.917 98.6546H465.918C457.329 98.6546 456.375 98.1765 447.786 85.9044L430.608 61.2009H427.109V87.0201C427.109 91.1639 428.064 93.0764 432.517 97.539V97.6984H408.5V97.539C412.954 93.0764 413.908 91.1639 413.908 87.0201V14.5034C413.908 9.40327 412.954 7.33136 407.705 2.23128V2.07191H427.109V60.0853H428.7C431.563 60.0853 432.676 59.7665 435.539 56.8978L450.49 42.8725C453.512 40.0037 453.989 39.0475 453.989 36.9756C453.989 34.4255 452.081 32.1942 447.786 28.3692V28.2098H469.577V28.3692C459.715 36.1787 455.898 39.3662 451.763 43.1913L440.947 53.3914Z" fill="black" fill-opacity="0.9"/>
<path d="M112.95 129.192C108.02 133.973 107.065 136.204 107.065 140.986V212.706C107.065 217.487 108.02 219.718 112.95 224.5V224.659H87.5017V224.5C92.4324 219.718 93.3867 217.487 93.3867 212.706V137.958L60.3036 225.934H59.3493L24.6756 146.564V206.968C24.6756 213.343 25.4709 216.053 34.696 224.5V224.659H13.3828V224.5C22.6079 216.053 23.4032 213.343 23.4032 206.968V143.855L16.723 129.033H31.9921L66.1886 207.446L95.6134 129.033H112.95V129.192Z" fill="black" fill-opacity="0.9"/>
<path d="M154.232 226.253C134.032 226.253 122.103 210.793 122.103 190.074C122.103 169.355 134.35 153.577 154.709 153.577C175.068 153.577 186.838 169.036 186.838 189.437C186.838 210.315 174.591 226.253 154.232 226.253ZM154.391 225.296C170.296 225.296 172.046 209.359 172.046 189.755C172.046 169.674 169.978 154.533 154.391 154.533C138.486 154.533 136.895 170.471 136.895 189.755C136.895 210.474 138.804 225.296 154.391 225.296Z" fill="black" fill-opacity="0.9"/>
<path d="M256.013 213.981C256.013 218.124 256.967 220.037 261.42 224.5V224.659H237.403V224.5C241.857 220.037 242.811 218.124 242.811 213.981V175.73C242.811 166.167 238.835 159.633 228.337 159.633C221.339 159.633 216.249 162.821 213.386 165.849V213.981C213.386 218.124 214.341 220.037 218.794 224.5V224.659H194.777V224.5C199.23 220.037 200.185 218.124 200.185 213.981V166.964C200.185 162.024 199.23 160.111 194.459 155.33V155.17H213.068L213.386 164.733C217.204 159.314 223.725 153.577 234.699 153.577C248.219 153.577 256.013 161.546 256.013 174.774V213.981Z" fill="black" fill-opacity="0.9"/>
<path d="M304.913 217.168C314.615 217.168 321.772 212.865 325.908 205.374L326.226 205.534C323.204 218.124 313.979 226.253 299.823 226.253C279.464 226.253 269.126 211.112 269.126 189.915C269.126 168.558 279.782 153.577 299.505 153.577C317.319 153.577 326.862 166.646 326.862 183.54V184.655H282.327V186.568C282.327 205.852 289.007 217.168 304.913 217.168ZM298.869 154.533C286.304 154.533 282.327 165.371 282.327 182.424V183.54H313.661V180.193C313.661 164.414 310.162 154.533 298.869 154.533Z" fill="black" fill-opacity="0.9"/>
<path d="M372.698 155.17H392.421V155.33C386.854 162.502 385.263 165.689 382.4 174.933L361.405 240.119C359.338 246.494 355.361 250 349.158 250C345.5 250 342.16 248.884 339.933 247.45V239.003C342.478 239.322 344.864 239.481 347.409 239.481C355.997 239.481 361.087 237.409 363.314 230.556L365.223 224.659H355.679L337.229 170.949C334.684 163.617 333.253 160.589 328.64 155.33V155.17H353.453V155.33C350.113 158.358 349.317 160.27 349.317 162.502C349.317 164.414 349.476 166.008 351.067 170.471L367.29 218.284L381.128 174.933C382.4 170.949 382.878 169.036 382.878 166.805C382.878 162.661 380.492 159.952 372.698 155.33V155.17Z" fill="black" fill-opacity="0.9"/>
<path d="M434.572 171.108C429.801 167.283 426.461 158.677 423.916 149.911H423.757C421.212 158.677 417.872 167.283 413.1 171.108L406.102 166.008C408.169 160.111 415.645 154.214 422.802 149.273V149.114C421.53 149.273 419.303 149.433 417.395 149.433C410.873 149.433 403.239 147.998 399.422 145.608L402.125 137.32H402.444C408.806 137.32 416.281 142.898 423.12 147.998L423.28 147.839C420.258 139.551 418.985 133.336 418.985 129.192C418.985 127.279 419.303 125.686 419.621 124.57H428.051C428.369 125.686 428.687 127.279 428.687 129.192C428.687 133.336 427.415 139.551 424.393 147.839L424.552 147.998C431.391 142.898 438.867 137.32 445.229 137.32H445.547L448.251 145.608C444.434 147.998 436.799 149.433 430.278 149.433C428.369 149.433 426.143 149.273 424.87 149.114V149.273C432.028 154.214 439.503 160.111 441.571 166.008L434.572 171.108Z" fill="black" fill-opacity="0.9"/>
</svg>
